<?xml version="1.0" encoding="UTF-8" standalone="no"?><!-- Generator: Gravit.io --><svg xmlns="http://www.w3.org/2000/svg" xmlns:xlink="http://www.w3.org/1999/xlink" style="isolation:isolate" viewBox="0 0 22 28" width="22pt" height="28pt"><defs><clipPath id="_clipPath_Lu3Vqg0IHKRMFRIneUjZ08uu0YI9e609"><rect width="22" height="28"/></clipPath></defs><g clip-path="url(#_clipPath_Lu3Vqg0IHKRMFRIneUjZ08uu0YI9e609)"><path d=" M 15.192 28 L 6.81 28 C 6.393 28 5.993 27.842 5.699 27.561 C 5.404 27.279 5.238 26.898 5.238 26.5 C 5.238 26.102 5.404 25.72 5.699 25.439 C 5.993 25.158 6.393 25 6.81 25 L 15.192 25 C 15.608 25 16.008 25.158 16.303 25.439 C 16.597 25.72 16.763 26.102 16.763 26.5 C 16.763 26.898 16.597 27.279 16.303 27.561 C 16.008 27.842 15.608 28 15.192 28 Z " fill="rgb(250,250,250)"/><path d=" M 16.762 20.5 C 16.761 21.162 16.485 21.798 15.994 22.266 C 15.503 22.735 14.837 22.999 14.143 23 L 7.857 23 C 7.163 22.999 6.497 22.735 6.006 22.266 C 5.515 21.798 5.239 21.162 5.238 20.5 L 5.238 19.445 C 3.198 18.248 1.622 16.447 0.752 14.317 C -0.118 12.186 -0.237 9.843 0.415 7.643 C 1.067 5.442 2.454 3.505 4.364 2.126 C 6.275 0.746 8.605 0 11 0 C 13.395 0 15.725 0.746 17.636 2.126 C 19.546 3.505 20.933 5.442 21.585 7.643 C 22.237 9.843 22.119 12.186 21.248 14.317 C 20.378 16.447 18.802 18.248 16.762 19.445 L 16.762 20.5 L 16.762 20.5 Z  M 8.381 19.499 C 8.381 19.632 8.436 19.759 8.534 19.853 C 8.633 19.947 8.766 19.999 8.905 19.999 L 13.095 19.999 C 13.234 19.999 13.367 19.947 13.466 19.853 C 13.564 19.759 13.619 19.632 13.619 19.499 L 13.619 18.563 C 13.619 18.284 13.7 18.01 13.854 17.773 C 14.008 17.535 14.229 17.344 14.491 17.219 C 16.078 16.468 17.353 15.226 18.108 13.695 C 18.863 12.165 19.054 10.436 18.65 8.788 C 18.246 7.141 17.27 5.673 15.881 4.622 C 14.492 3.571 12.772 2.999 11 2.999 C 9.228 2.999 7.508 3.571 6.119 4.622 C 4.73 5.673 3.754 7.141 3.35 8.788 C 2.946 10.436 3.137 12.165 3.892 13.695 C 4.647 15.226 5.922 16.468 7.509 17.219 C 7.771 17.344 7.992 17.535 8.146 17.773 C 8.3 18.01 8.381 18.284 8.381 18.563 L 8.381 19.499 L 8.381 19.499 Z " fill="rgb(250,250,250)"/></g></svg>