<?xml version="1.0" encoding="UTF-8" standalone="no"?><!-- Generator: Gravit.io --><svg xmlns="http://www.w3.org/2000/svg" xmlns:xlink="http://www.w3.org/1999/xlink" style="isolation:isolate" viewBox="0 0 50 50" width="50pt" height="50pt"><defs><clipPath id="_clipPath_74ppljeCQ8Wg0RXqWPw5bf7WMUq4kBhc"><rect width="50" height="50"/></clipPath></defs><g clip-path="url(#_clipPath_74ppljeCQ8Wg0RXqWPw5bf7WMUq4kBhc)"><clipPath id="_clipPath_SB4jBGuZnjygZKlif6MEqUBkUURwt0Rt"><rect x="0" y="0" width="50" height="50" transform="matrix(1,0,0,1,0,0)" fill="rgb(255,255,255)"/></clipPath><g clip-path="url(#_clipPath_SB4jBGuZnjygZKlif6MEqUBkUURwt0Rt)"><g><g><path d=" M 30.357 18.893 C 30.357 18.192 30.079 17.52 29.583 17.024 C 29.087 16.528 28.415 16.25 27.714 16.25 L 21.429 16.25 C 20.935 16.25 20.536 16.65 20.536 17.143 L 20.536 20.714 C 20.622 21.137 20.998 21.437 21.429 21.429 L 27.714 21.429 C 29.126 21.412 30.282 20.302 30.357 18.893 Z " fill="rgb(255,120,0)"/><path d=" M 27.643 26.036 L 21.429 26.036 C 20.935 26.036 20.536 26.435 20.536 26.929 L 20.536 32.143 C 20.516 32.392 20.601 32.638 20.771 32.821 C 20.94 33.004 21.179 33.108 21.429 33.107 L 27.643 33.107 C 29.615 33.107 31.214 31.508 31.214 29.536 C 31.214 27.563 29.615 25.964 27.643 25.964 L 27.643 26.036 L 27.643 26.036 Z " fill="rgb(255,120,0)"/><path d=" M 25 0 C 11.193 0 0 11.193 0 25 C 0 38.807 11.193 50 25 50 C 38.807 50 50 38.807 50 25 C 50 11.193 38.807 0 25 0 Z  M 31.714 36.429 C 31.447 36.583 31.283 36.87 31.286 37.179 L 31.286 41.071 C 31.143 42.196 30.187 43.039 29.054 43.039 C 27.92 43.039 26.964 42.196 26.821 41.071 L 26.821 38.464 C 26.821 37.971 26.422 37.571 25.929 37.571 L 24 37.571 C 23.507 37.571 23.107 37.971 23.107 38.464 L 23.107 41.071 C 22.965 42.196 22.008 43.039 20.875 43.039 C 19.742 43.039 18.785 42.196 18.643 41.071 L 18.643 37.821 C 18.647 37.502 18.466 37.21 18.179 37.071 C 16.899 36.342 16.119 34.973 16.143 33.5 L 16.143 15.643 C 16.119 14.17 16.899 12.801 18.179 12.071 C 18.466 11.933 18.647 11.64 18.643 11.321 L 18.643 8.929 C 18.785 7.804 19.742 6.961 20.875 6.961 C 22.008 6.961 22.965 7.804 23.107 8.929 L 23.107 10.893 C 23.107 11.386 23.507 11.786 24 11.786 L 25.929 11.786 C 26.422 11.786 26.821 11.386 26.821 10.893 L 26.821 8.929 C 26.964 7.804 27.92 6.961 29.054 6.961 C 30.187 6.961 31.143 7.804 31.286 8.929 L 31.286 12.286 C 31.288 12.584 31.435 12.863 31.679 13.036 C 33.261 14.118 34.341 15.792 34.677 17.679 C 35.013 19.566 34.576 21.509 33.464 23.071 C 33.194 23.391 33.194 23.859 33.464 24.179 C 34.862 25.632 35.664 27.556 35.714 29.571 C 35.704 32.408 34.178 35.023 31.714 36.429 L 31.714 36.429 L 31.714 36.429 Z " fill="rgb(255,120,0)"/></g></g></g></g></svg>