<?xml version="1.0" encoding="UTF-8" standalone="no"?><!-- Generator: Gravit.io --><svg xmlns="http://www.w3.org/2000/svg" xmlns:xlink="http://www.w3.org/1999/xlink" style="isolation:isolate" viewBox="0 0 50 50" width="50pt" height="50pt"><defs><clipPath id="_clipPath_WcwK6WZGLnVahvLaEorpKzh802OaQaWr"><rect width="50" height="50"/></clipPath></defs><g clip-path="url(#_clipPath_WcwK6WZGLnVahvLaEorpKzh802OaQaWr)"><clipPath id="_clipPath_DLKfPzNYnw5oBmlXeTj4vWvVyqouU8yc"><rect x="0" y="0" width="50" height="50" transform="matrix(1,0,0,1,0,0)" fill="rgb(255,255,255)"/></clipPath><g clip-path="url(#_clipPath_DLKfPzNYnw5oBmlXeTj4vWvVyqouU8yc)"><g><path d=" M 44.643 4.464 L 5.357 4.464 C 2.398 4.464 0 6.863 0 9.821 L 0 40.179 C 0 43.137 2.398 45.536 5.357 45.536 L 44.643 45.536 C 47.602 45.536 50 43.137 50 40.179 L 50 9.821 C 50 6.863 47.602 4.464 44.643 4.464 Z  M 44.25 19.25 L 29.964 27.821 C 26.889 29.677 23.039 29.677 19.964 27.821 L 5.679 19.25 C 4.478 18.455 4.121 16.853 4.87 15.623 C 5.62 14.393 7.207 13.976 8.464 14.679 L 22.75 23.214 C 24.116 24.02 25.812 24.02 27.179 23.214 L 41.464 14.679 C 42.721 13.976 44.309 14.393 45.058 15.623 C 45.808 16.853 45.451 18.455 44.25 19.25 Z " fill="rgb(255,120,0)"/></g></g></g></svg>