<?xml version="1.0" encoding="UTF-8" standalone="no"?><!-- Generator: Gravit.io --><svg xmlns="http://www.w3.org/2000/svg" xmlns:xlink="http://www.w3.org/1999/xlink" style="isolation:isolate" viewBox="0 0 50 50" width="50pt" height="50pt"><defs><clipPath id="_clipPath_SGakXbElzb1Ey8hxAhn0EvMOClOOYZu1"><rect width="50" height="50"/></clipPath></defs><g clip-path="url(#_clipPath_SGakXbElzb1Ey8hxAhn0EvMOClOOYZu1)"><clipPath id="_clipPath_l1rpItmCP9F0XvlyAin7jUxO6UQOxZlq"><rect x="0" y="0" width="50" height="50" transform="matrix(1,0,0,1,0,0)" fill="rgb(255,255,255)"/></clipPath><g clip-path="url(#_clipPath_l1rpItmCP9F0XvlyAin7jUxO6UQOxZlq)"><g><g><path d=" M 49.607 42.607 L 42.071 23.643 C 41.53 22.237 40.301 21.211 38.821 20.929 C 37.346 20.606 35.808 21.065 34.75 22.143 L 22.107 34.75 L 22.107 34.75 C 21.103 35.811 20.686 37.298 20.993 38.726 C 21.3 40.154 22.291 41.339 23.643 41.893 L 42.607 49.429 C 44.656 50.407 47.099 49.988 48.704 48.383 C 50.309 46.777 50.728 44.334 49.75 42.286 L 49.607 42.607 L 49.607 42.607 Z " fill="rgb(255,120,0)"/><path d=" M 6.571 31.536 C 5.441 30.582 5.282 28.898 6.214 27.75 C 7.887 25.803 10.293 24.639 12.857 24.536 C 14.901 24.366 16.926 25.037 18.464 26.393 C 19.509 27.439 19.509 29.133 18.464 30.179 C 17.399 31.208 15.709 31.208 14.643 30.179 C 13.136 29.567 11.407 29.967 10.321 31.179 C 9.38 32.305 7.708 32.464 6.571 31.536 Z " fill="rgb(255,120,0)"/><path d=" M 27.143 19.714 C 23.76 15.921 22.921 10.495 25 5.857 C 26.315 2.677 29.23 0.443 32.643 0 C 34.114 0.019 35.302 1.207 35.321 2.679 C 35.302 4.15 34.114 5.338 32.643 5.357 C 31.268 5.875 30.177 6.952 29.643 8.321 C 28.527 11.093 29.19 14.264 31.321 16.357 C 32.127 17.472 31.957 19.015 30.929 19.929 C 29.818 20.897 28.137 20.801 27.143 19.714 Z " fill="rgb(255,120,0)"/><circle vector-effect="non-scaling-stroke" cx="4.464285714285714" cy="16.071428571428573" r="4.464285714285714" fill="rgb(255,120,0)"/><path d=" M 16.286 16.25 C 13.39 13.624 11.775 9.872 11.857 5.964 C 11.857 4.485 13.056 3.286 14.536 3.286 C 16.015 3.286 17.214 4.485 17.214 5.964 C 17.122 8.242 18.005 10.45 19.643 12.036 C 20.796 12.969 20.987 14.654 20.071 15.821 C 19.129 16.957 17.458 17.146 16.286 16.25 Z " fill="rgb(255,120,0)"/></g></g></g></g></svg>