<?xml version="1.0" encoding="UTF-8" standalone="no"?><!-- Generator: Gravit.io --><svg xmlns="http://www.w3.org/2000/svg" xmlns:xlink="http://www.w3.org/1999/xlink" style="isolation:isolate" viewBox="0 0 73.565 73.486" width="73.565pt" height="73.486pt"><defs><clipPath id="_clipPath_LAUe83yNCYZsyZr1nsFuuQxovXVzzjCp"><rect width="73.565" height="73.486"/></clipPath></defs><g clip-path="url(#_clipPath_LAUe83yNCYZsyZr1nsFuuQxovXVzzjCp)"><clipPath id="_clipPath_ZHDssZ2fIwDyEKU7Fmz4cV6KheARVUEq"><rect x="0" y="0" width="73.565" height="73.486" transform="matrix(1,0,0,1,0,0)" fill="rgb(255,255,255)"/></clipPath><g clip-path="url(#_clipPath_ZHDssZ2fIwDyEKU7Fmz4cV6KheARVUEq)"><g><path d=" M 73.454 40.395 C 73.447 32.497 73.521 24.595 73.405 16.699 C 73.448 13.161 72.386 9.698 70.366 6.793 C 66.797 1.832 61.69 0.079 55.884 0.045 C 43.141 -0.025 30.398 -0.004 17.655 0.045 C 14.898 -0.015 12.16 0.509 9.621 1.584 C 3.198 4.492 0.33 9.86 0.125 16.546 C -0.135 25.1 0.088 33.669 0.104 42.232 C 0.101 46.972 0.009 51.716 0.122 56.453 C 0.26 62.115 2.145 66.999 6.971 70.399 C 10.23 72.694 13.97 73.377 17.826 73.407 Q 30.826 73.517 43.83 73.429 C 48.87 73.395 53.92 73.707 58.957 73.15 C 66.512 72.558 72.529 66.586 73.178 59.036 C 73.879 52.839 73.405 46.611 73.454 40.395 Z  M 46.93 46.822 C 45.929 50.849 43.53 52.863 39.34 52.909 Q 29.122 53.015 18.903 52.909 C 15.661 52.961 12.725 50.998 11.534 47.982 C 11.375 47.405 11.307 46.808 11.332 46.21 C 11.338 40.402 11.402 34.593 11.338 28.785 C 11.277 23.411 14.295 20.877 19.326 20.822 C 25.847 20.751 32.372 20.8 38.893 20.806 C 41.449 20.684 43.923 21.718 45.632 23.622 C 46.542 24.787 47.004 26.24 46.933 27.716 Q 46.942 37.269 46.93 46.822 L 46.93 46.822 L 46.93 46.822 Z  M 62.443 27.022 Q 62.438 37.272 62.439 47.523 C 62.443 48.931 62.201 50.173 60.778 50.84 C 59.367 51.501 58.265 50.981 57.179 50.032 C 54.838 47.988 52.435 46.014 50.06 44.007 C 49.44 43.554 48.955 42.94 48.659 42.232 C 48.65 39.135 48.8 36.028 48.57 32.947 C 48.411 30.786 49.776 29.559 51.052 28.561 C 53.041 27.003 54.801 25.204 56.769 23.64 C 57.383 22.987 58.187 22.544 59.067 22.373 C 60.677 22.199 61.482 23.034 62.222 24.173 C 62.436 25.106 62.51 26.066 62.443 27.022 L 62.443 27.022 L 62.443 27.022 Z " fill="rgb(255,120,0)"/></g></g></g></svg>