<?xml version="1.0" encoding="UTF-8" standalone="no"?><!-- Generator: Gravit.io --><svg xmlns="http://www.w3.org/2000/svg" xmlns:xlink="http://www.w3.org/1999/xlink" style="isolation:isolate" viewBox="0 0 50 50" width="50pt" height="50pt"><defs><clipPath id="_clipPath_6istOEbf5ERG68RixZQxQjTvL5d5ysRG"><rect width="50" height="50"/></clipPath></defs><g clip-path="url(#_clipPath_6istOEbf5ERG68RixZQxQjTvL5d5ysRG)"><clipPath id="_clipPath_ySNYySR6XRrZTj1x4lruzrvSYcGDIq8b"><rect x="0" y="0" width="50" height="50" transform="matrix(1,0,0,1,0,0)" fill="rgb(255,255,255)"/></clipPath><g clip-path="url(#_clipPath_ySNYySR6XRrZTj1x4lruzrvSYcGDIq8b)"><g><path d=" M 25 0 C 15.138 0 7.143 7.995 7.143 17.857 C 7.143 27.071 21.893 47.036 23.571 49.286 C 23.909 49.735 24.438 50 25 50 C 25.562 50 26.091 49.735 26.429 49.286 C 28.107 47.036 42.857 27.071 42.857 17.857 C 42.857 7.995 34.862 0 25 0 Z  M 25 23.214 C 22.041 23.214 19.643 20.816 19.643 17.857 C 19.643 14.898 22.041 12.5 25 12.5 C 27.959 12.5 30.357 14.898 30.357 17.857 C 30.357 20.816 27.959 23.214 25 23.214 Z " fill="rgb(255,120,0)"/></g></g></g></svg>