<?xml version="1.0" encoding="UTF-8" standalone="no"?><!-- Generator: Gravit.io --><svg xmlns="http://www.w3.org/2000/svg" xmlns:xlink="http://www.w3.org/1999/xlink" style="isolation:isolate" viewBox="0 0 50 50" width="50pt" height="50pt"><defs><clipPath id="_clipPath_gya2LPCw1OogvdXM0rKOthXoufQwe1yh"><rect width="50" height="50"/></clipPath></defs><g clip-path="url(#_clipPath_gya2LPCw1OogvdXM0rKOthXoufQwe1yh)"><clipPath id="_clipPath_tKjbFA2ZFlhgFRXC676FJ9wILcIaMTB4"><rect x="0" y="0" width="50" height="50" transform="matrix(1,0,0,1,0,0)" fill="rgb(255,255,255)"/></clipPath><g clip-path="url(#_clipPath_tKjbFA2ZFlhgFRXC676FJ9wILcIaMTB4)"><g><g><path d=" M 46.429 19.643 C 46.186 19.4 45.832 19.305 45.5 19.393 C 45.188 19.51 44.958 19.78 44.893 20.107 C 44.104 24.943 41.362 29.243 37.31 31.998 C 33.258 34.753 28.252 35.723 23.464 34.679 L 17.179 33.357 C 16.951 33.305 16.711 33.347 16.516 33.475 C 16.32 33.603 16.186 33.806 16.143 34.036 L 12.929 48.929 C 12.808 49.164 12.808 49.443 12.929 49.679 C 13.097 49.88 13.345 49.998 13.607 50 L 19.286 50 C 19.708 50.006 20.072 49.703 20.143 49.286 L 22.107 40.321 C 22.214 39.854 22.671 39.554 23.143 39.643 L 33.679 41.929 C 37.654 42.778 41.801 41.791 44.967 39.241 C 48.133 36.692 49.982 32.851 50 28.786 L 50 28.786 C 50.039 25.391 48.758 22.113 46.429 19.643 Z " fill="rgb(255,120,0)"/><path d=" M 29.643 3.929 L 11.714 0 C 11.038 -0.155 10.328 -0.026 9.75 0.357 C 9.154 0.718 8.739 1.315 8.607 2 L 0 41.679 C -0.173 42.354 -0.042 43.071 0.357 43.643 C 0.718 44.239 1.315 44.654 2 44.786 L 6.286 45.714 L 6.857 45.714 C 8.08 45.694 9.129 44.837 9.393 43.643 L 12.714 28.571 C 12.765 28.339 12.907 28.136 13.109 28.009 C 13.31 27.881 13.554 27.84 13.786 27.893 L 24.321 30.179 C 28.301 31.135 32.5 30.214 35.714 27.679 C 38.907 25.127 40.772 21.266 40.786 17.179 L 40.786 17.179 C 40.708 10.669 36.043 5.121 29.643 3.929 Z  M 29.357 17.643 C 28.896 19.609 26.995 20.887 25 20.571 L 15.821 18.607 C 15.334 18.5 15.019 18.027 15.107 17.536 L 16.357 11.821 C 16.398 11.591 16.543 11.393 16.75 11.286 C 16.967 11.196 17.211 11.196 17.429 11.286 L 26.429 13.25 C 28.422 13.696 29.712 15.631 29.357 17.643 Z " fill="rgb(255,120,0)"/></g></g></g></g></svg>