<?xml version="1.0" encoding="UTF-8" standalone="no"?><!-- Generator: Gravit.io --><svg xmlns="http://www.w3.org/2000/svg" xmlns:xlink="http://www.w3.org/1999/xlink" style="isolation:isolate" viewBox="0 0 50 50" width="50pt" height="50pt"><defs><clipPath id="_clipPath_GmsMUMKzAXdsQ2OtHRiFDZxlL2cmXlGM"><rect width="50" height="50"/></clipPath></defs><g clip-path="url(#_clipPath_GmsMUMKzAXdsQ2OtHRiFDZxlL2cmXlGM)"><clipPath id="_clipPath_zur4dxLvx7Dr47UcrcfPxeMirUv2cuJX"><rect x="0" y="0" width="50" height="50" transform="matrix(1,0,0,1,0,0)" fill="rgb(255,255,255)"/></clipPath><g clip-path="url(#_clipPath_zur4dxLvx7Dr47UcrcfPxeMirUv2cuJX)"><g><path d=" M 31.75 48.071 C 36.609 51.193 42.985 50.509 47.071 46.429 L 48.786 44.714 C 49.558 43.95 49.992 42.908 49.992 41.821 C 49.992 40.735 49.558 39.693 48.786 38.929 L 41.643 31.786 C 40.878 31.014 39.837 30.579 38.75 30.579 C 37.663 30.579 36.622 31.014 35.857 31.786 L 35.857 31.786 C 35.092 32.558 34.051 32.992 32.964 32.992 C 31.878 32.992 30.836 32.558 30.071 31.786 L 18.357 20.036 C 16.772 18.447 16.772 15.875 18.357 14.286 L 18.357 14.286 C 19.129 13.521 19.564 12.48 19.564 11.393 C 19.564 10.306 19.129 9.265 18.357 8.5 L 11.214 1.357 C 10.45 0.585 9.408 0.151 8.321 0.151 C 7.235 0.151 6.193 0.585 5.429 1.357 L 3.571 2.929 C -0.496 7.021 -1.179 13.388 1.929 18.25 C 9.886 29.993 20.007 40.114 31.75 48.071 Z " fill="rgb(255,120,0)"/></g></g></g></svg>