<?xml version="1.0" encoding="UTF-8" standalone="no"?><!-- Generator: Gravit.io --><svg xmlns="http://www.w3.org/2000/svg" xmlns:xlink="http://www.w3.org/1999/xlink" style="isolation:isolate" viewBox="0 0 50 50" width="50pt" height="50pt"><defs><clipPath id="_clipPath_hYOdNAfRsn4ylNEc8MlOUfR8jsSMS3oP"><rect width="50" height="50"/></clipPath></defs><g clip-path="url(#_clipPath_hYOdNAfRsn4ylNEc8MlOUfR8jsSMS3oP)"><clipPath id="_clipPath_ghdt1ZDGrceLu1qJxZWmSZu9B0uT8cVp"><rect x="0" y="0" width="50" height="50" transform="matrix(1,0,0,1,0,0)" fill="rgb(255,255,255)"/></clipPath><g clip-path="url(#_clipPath_ghdt1ZDGrceLu1qJxZWmSZu9B0uT8cVp)"><g><path d=" M 25 0 C 11.193 0 0 11.193 0 25 C 0.016 29.472 1.251 33.855 3.571 37.679 C 3.693 37.926 3.693 38.216 3.571 38.464 L 0 47.571 C -0.218 48.181 -0.096 48.861 0.321 49.357 C 0.665 49.811 1.219 50.054 1.786 50 L 2.107 50 L 14.286 47.75 C 14.448 47.696 14.623 47.696 14.786 47.75 C 24.1 51.993 35.06 50.13 42.449 43.048 C 49.838 35.965 52.164 25.094 48.319 15.608 C 44.474 6.122 35.235 -0.061 25 0 Z  M 11.607 29.464 C 9.142 29.464 7.143 27.466 7.143 25 C 7.143 22.534 9.142 20.536 11.607 20.536 C 14.073 20.536 16.071 22.534 16.071 25 C 16.071 27.466 14.073 29.464 11.607 29.464 Z  M 25 29.464 C 22.534 29.464 20.536 27.466 20.536 25 C 20.536 22.534 22.534 20.536 25 20.536 C 27.466 20.536 29.464 22.534 29.464 25 C 29.464 27.466 27.466 29.464 25 29.464 Z  M 38.393 29.464 C 35.927 29.464 33.929 27.466 33.929 25 C 33.929 22.534 35.927 20.536 38.393 20.536 C 40.858 20.536 42.857 22.534 42.857 25 C 42.857 27.466 40.858 29.464 38.393 29.464 Z " fill="rgb(255,120,0)"/></g></g></g></svg>