<?xml version="1.0" encoding="UTF-8" standalone="no"?><!-- Generator: Gravit.io --><svg xmlns="http://www.w3.org/2000/svg" xmlns:xlink="http://www.w3.org/1999/xlink" style="isolation:isolate" viewBox="0 0 50 50" width="50pt" height="50pt"><defs><clipPath id="_clipPath_zBRsQ3y604vbcE41ITxuL82xB0krLBhr"><rect width="50" height="50"/></clipPath></defs><g clip-path="url(#_clipPath_zBRsQ3y604vbcE41ITxuL82xB0krLBhr)"><clipPath id="_clipPath_GhNXCCVNqcfOwNTd7H3TqHXIPDEn7klc"><rect x="0" y="0" width="50" height="50" transform="matrix(1,0,0,1,0,0)" fill="rgb(255,255,255)"/></clipPath><g clip-path="url(#_clipPath_GhNXCCVNqcfOwNTd7H3TqHXIPDEn7klc)"><g><g><path d=" M 42.857 42.857 L 7.143 42.857 C 5.17 42.857 3.571 44.456 3.571 46.429 C 3.571 48.401 5.17 50 7.143 50 L 42.857 50 C 44.83 50 46.429 48.401 46.429 46.429 C 46.429 44.456 44.83 42.857 42.857 42.857 Z " fill="rgb(255,120,0)"/><path d=" M 7.321 37.107 C 9.031 38.017 11.153 37.399 12.107 35.714 L 15.107 29.75 C 15.361 29.073 15.992 28.61 16.714 28.571 L 33.286 28.571 C 33.966 28.578 34.586 28.964 34.893 29.571 L 37.893 35.714 C 38.407 36.95 39.57 37.794 40.904 37.901 C 42.239 38.008 43.521 37.36 44.226 36.222 C 44.931 35.084 44.94 33.647 44.25 32.5 L 29.571 3 C 28.785 1.175 26.987 -0.005 25 0 C 23.083 -0.031 21.331 1.077 20.536 2.821 L 5.75 32.321 C 4.868 34.077 5.57 36.216 7.321 37.107 Z  M 24.214 11.429 C 24.347 11.115 24.66 10.916 25 10.929 C 25.338 10.926 25.645 11.122 25.786 11.429 L 30.179 20.143 C 30.318 20.411 30.318 20.731 30.179 21 C 30.027 21.306 29.695 21.48 29.357 21.429 L 20.643 21.429 C 20.323 21.437 20.023 21.273 19.857 21 C 19.711 20.733 19.711 20.41 19.857 20.143 L 24.214 11.429 L 24.214 11.429 Z " fill="rgb(255,120,0)"/></g></g></g></g></svg>