<?xml version="1.0" encoding="UTF-8" standalone="no"?><!-- Generator: Gravit.io --><svg xmlns="http://www.w3.org/2000/svg" xmlns:xlink="http://www.w3.org/1999/xlink" style="isolation:isolate" viewBox="0 0 50 50" width="50pt" height="50pt"><defs><clipPath id="_clipPath_rrp22YOGFgeXyODXFmFhvp0TnUKpNdTG"><rect width="50" height="50"/></clipPath></defs><g clip-path="url(#_clipPath_rrp22YOGFgeXyODXFmFhvp0TnUKpNdTG)"><clipPath id="_clipPath_YVj3feaukJkXELap7zeT5VyByT4BQsGP"><rect x="0" y="0" width="50" height="50" transform="matrix(1,0,0,1,0,0)" fill="rgb(255,255,255)"/></clipPath><g clip-path="url(#_clipPath_YVj3feaukJkXELap7zeT5VyByT4BQsGP)"><g><g><path d=" M 20.536 33 C 19.563 33.093 18.595 32.783 17.857 32.143 C 17.124 31.467 16.707 30.515 16.707 29.518 C 16.707 28.521 17.124 27.569 17.857 26.893 L 26.929 17.857 C 28.349 16.417 30.667 16.401 32.107 17.821 C 33.547 19.242 33.563 21.56 32.143 23 L 23.071 32.143 C 22.369 32.746 21.46 33.054 20.536 33 Z " fill="rgb(255,120,0)"/><path d=" M 39.286 32.143 C 38.336 32.148 37.424 31.776 36.75 31.107 C 36.074 30.437 35.694 29.524 35.694 28.571 C 35.694 27.619 36.074 26.706 36.75 26.036 L 41.821 20.964 C 42.498 20.294 42.878 19.381 42.878 18.429 C 42.878 17.476 42.498 16.563 41.821 15.893 L 34.071 8.107 C 33.401 7.431 32.488 7.051 31.536 7.051 C 30.583 7.051 29.671 7.431 29 8.107 L 23.964 13.179 C 22.564 14.579 20.293 14.579 18.893 13.179 C 17.492 11.778 17.492 9.508 18.893 8.107 L 23.964 3.036 C 28.232 -1.106 35.018 -1.106 39.286 3.036 L 46.857 10.714 C 48.875 12.725 50.008 15.456 50.008 18.304 C 50.008 21.152 48.875 23.882 46.857 25.893 L 41.821 31.071 C 41.153 31.753 40.24 32.139 39.286 32.143 Z " fill="rgb(255,120,0)"/><path d=" M 18.464 50 C 15.624 49.997 12.9 48.867 10.893 46.857 L 3.143 39.071 C 1.125 37.061 -0.008 34.33 -0.008 31.482 C -0.008 28.634 1.125 25.903 3.143 23.893 L 8.179 18.857 C 9.569 17.457 11.832 17.449 13.232 18.839 C 14.633 20.23 14.641 22.492 13.25 23.893 L 8.179 28.964 C 7.502 29.635 7.122 30.548 7.122 31.5 C 7.122 32.452 7.502 33.365 8.179 34.036 L 15.929 41.786 C 16.599 42.462 17.512 42.842 18.464 42.842 C 19.417 42.842 20.329 42.462 21 41.786 L 26.036 36.75 C 27.426 35.35 29.689 35.342 31.089 36.732 C 32.49 38.123 32.498 40.385 31.107 41.786 L 26.036 46.857 C 24.028 48.867 21.305 49.997 18.464 50 Z " fill="rgb(255,120,0)"/></g></g></g></g></svg>