<?xml version="1.0" encoding="UTF-8" standalone="no"?><!-- Generator: Gravit.io --><svg xmlns="http://www.w3.org/2000/svg" xmlns:xlink="http://www.w3.org/1999/xlink" style="isolation:isolate" viewBox="0 0 50 50" width="50pt" height="50pt"><defs><clipPath id="_clipPath_7eHHIsHOmOdJMkORd90GtcL297XS53LE"><rect width="50" height="50"/></clipPath></defs><g clip-path="url(#_clipPath_7eHHIsHOmOdJMkORd90GtcL297XS53LE)"><clipPath id="_clipPath_6LSh38C22Y881ePoqzp5n8mFaN5voDo6"><rect x="0" y="0" width="50" height="50" transform="matrix(1,0,0,1,0,0)" fill="rgb(255,255,255)"/></clipPath><g clip-path="url(#_clipPath_6LSh38C22Y881ePoqzp5n8mFaN5voDo6)"><g><path d=" M 43.75 7.143 L 6.25 7.143 C 2.806 7.162 0.02 9.949 0 13.393 L 0 36.607 C 0.02 40.051 2.806 42.838 6.25 42.857 L 43.75 42.857 C 47.194 42.838 49.98 40.051 50 36.607 L 50 13.393 C 49.98 9.949 47.194 7.162 43.75 7.143 L 43.75 7.143 L 43.75 7.143 Z  M 41.964 37.5 L 38.393 37.5 C 36.914 37.5 35.714 36.301 35.714 34.821 C 35.714 33.342 36.914 32.143 38.393 32.143 L 41.964 32.143 C 43.444 32.143 44.643 33.342 44.643 34.821 C 44.643 36.301 43.444 37.5 41.964 37.5 Z  M 44.643 20.536 C 44.624 22.007 43.436 23.195 41.964 23.214 L 8.036 23.214 C 6.564 23.195 5.376 22.007 5.357 20.536 L 5.357 18.75 C 5.376 17.279 6.564 16.091 8.036 16.071 L 41.964 16.071 C 43.436 16.091 44.624 17.279 44.643 18.75 L 44.643 20.536 L 44.643 20.536 Z " fill="rgb(255,120,0)"/></g></g></g></svg>