<?xml version="1.0" encoding="UTF-8" standalone="no"?><!-- Generator: Gravit.io --><svg xmlns="http://www.w3.org/2000/svg" xmlns:xlink="http://www.w3.org/1999/xlink" style="isolation:isolate" viewBox="0 0 166.467 166.396" width="166.467pt" height="166.396pt"><defs><clipPath id="_clipPath_9WusE60ENnGw99AhefczCjRH463V58CM"><rect width="166.467" height="166.396"/></clipPath></defs><g clip-path="url(#_clipPath_9WusE60ENnGw99AhefczCjRH463V58CM)"><clipPath id="_clipPath_Mi0xHcmu7gpBheqfRljpEJHngGRSlAjq"><rect x="0" y="0" width="166.467" height="166.396" transform="matrix(1,0,0,1,0,0)" fill="rgb(255,255,255)"/></clipPath><g clip-path="url(#_clipPath_Mi0xHcmu7gpBheqfRljpEJHngGRSlAjq)"><g><path d=" M 126.857 109.633 C 124.845 112.841 122.364 115.73 119.497 118.203 C 116.734 120.534 113.339 121.989 109.747 122.383 C 108.025 122.602 106.292 122.713 104.557 122.713 C 98.699 122.546 92.933 121.214 87.597 118.793 C 80.892 115.803 74.644 111.881 69.037 107.143 C 62.584 101.961 56.758 96.045 51.677 89.513 C 47.818 84.645 44.843 79.139 42.887 73.243 C 41.506 68.947 41.026 64.413 41.477 59.923 C 41.785 57.458 42.65 55.095 44.007 53.013 C 46.185 49.545 48.965 46.494 52.217 44.003 C 53.648 42.881 55.516 42.478 57.283 42.909 C 59.05 43.34 60.522 44.558 61.277 46.213 Q 64.772 53.863 68.127 61.573 C 69.046 63.57 68.743 65.916 67.347 67.613 C 66.317 68.983 65.237 70.333 64.177 71.683 C 62.332 73.735 62.181 76.801 63.817 79.023 C 65.598 81.657 67.645 84.099 69.927 86.313 C 75.062 91.616 80.762 96.341 86.927 100.403 C 88.245 101.285 89.644 102.039 91.107 102.653 C 93.343 103.625 95.948 103.102 97.637 101.343 C 98.907 100.073 100.167 98.783 101.437 97.513 C 103.008 95.813 105.424 95.181 107.627 95.893 Q 115.517 98.128 123.417 100.383 C 125.342 100.845 126.912 102.235 127.602 104.091 C 128.293 105.947 128.013 108.026 126.857 109.633 L 126.857 109.633 L 126.857 109.633 Z " fill="rgb(255,120,0)"/><path d=" M 164.527 64.953 C 159.543 43.086 145.972 24.144 126.87 12.391 C 107.769 0.638 84.742 -2.936 62.977 2.473 C 46.492 6.51 31.664 15.559 20.537 28.373 C 8.765 41.6 1.652 58.32 0.287 75.973 C -0.253 82.334 -0.024 88.737 0.967 95.043 C 2.266 103.57 4.919 111.834 8.827 119.523 C 9.009 119.848 9.063 120.23 8.977 120.593 Q 4.792 140.678 0.627 160.753 C 0.37 161.605 0.222 162.485 0.187 163.373 C 0.238 164.372 0.75 165.29 1.572 165.86 C 2.394 166.429 3.433 166.586 4.387 166.283 Q 25.012 161.453 45.627 156.593 C 45.969 156.498 46.335 156.53 46.657 156.683 C 58.047 162.233 70.556 165.106 83.227 165.083 C 104.152 165.091 124.313 157.219 139.697 143.033 C 155.857 128.023 164.787 109.473 166.287 87.443 C 166.798 79.901 166.205 72.324 164.527 64.953 L 164.527 64.953 L 164.527 64.953 Z  M 105.157 143.413 C 99.862 145.289 94.346 146.466 88.747 146.913 C 76.471 147.985 64.143 145.562 53.187 139.923 C 51.737 139.183 50.277 138.483 48.827 137.743 C 48.527 137.591 48.181 137.555 47.857 137.643 Q 35.512 140.568 23.167 143.473 C 23.017 143.503 22.867 143.523 22.637 143.563 C 23.257 140.553 23.857 137.623 24.467 134.683 Q 26.207 126.328 27.937 117.993 C 28.013 117.646 27.959 117.284 27.787 116.973 C 25.767 113.28 23.948 109.481 22.337 105.593 C 19.276 97.649 17.838 89.172 18.107 80.663 C 18.843 55.852 33.769 33.67 56.477 23.643 C 62.261 21.061 68.387 19.327 74.667 18.493 C 105.635 14.338 135.196 32.741 145.137 62.363 C 147.024 68.056 148.088 73.989 148.297 79.983 C 149.374 108.297 131.885 134.011 105.157 143.413 L 105.157 143.413 L 105.157 143.413 Z " fill="rgb(255,120,0)"/><path d=" M 126.857 109.633 C 124.845 112.841 122.364 115.73 119.497 118.203 C 116.734 120.534 113.339 121.989 109.747 122.383 C 108.025 122.602 106.292 122.713 104.557 122.713 C 98.699 122.546 92.933 121.214 87.597 118.793 C 80.892 115.803 74.644 111.881 69.037 107.143 C 62.584 101.961 56.758 96.045 51.677 89.513 C 47.818 84.645 44.843 79.139 42.887 73.243 C 41.506 68.947 41.026 64.413 41.477 59.923 C 41.785 57.458 42.65 55.095 44.007 53.013 C 46.185 49.545 48.965 46.494 52.217 44.003 C 53.648 42.881 55.516 42.478 57.283 42.909 C 59.05 43.34 60.522 44.558 61.277 46.213 Q 64.772 53.863 68.127 61.573 C 69.046 63.57 68.743 65.916 67.347 67.613 C 66.317 68.983 65.237 70.333 64.177 71.683 C 62.332 73.735 62.181 76.801 63.817 79.023 C 65.598 81.657 67.645 84.099 69.927 86.313 C 75.062 91.616 80.762 96.341 86.927 100.403 C 88.245 101.285 89.644 102.039 91.107 102.653 C 93.343 103.625 95.948 103.102 97.637 101.343 C 98.907 100.073 100.167 98.783 101.437 97.513 C 103.008 95.813 105.424 95.181 107.627 95.893 Q 115.517 98.128 123.417 100.383 C 125.342 100.845 126.912 102.235 127.602 104.091 C 128.293 105.947 128.013 108.026 126.857 109.633 L 126.857 109.633 L 126.857 109.633 Z " fill="rgb(255,120,0)"/><path d=" M 126.857 109.633 C 124.845 112.841 122.364 115.73 119.497 118.203 C 116.734 120.534 113.339 121.989 109.747 122.383 C 108.025 122.602 106.292 122.713 104.557 122.713 C 98.699 122.546 92.933 121.214 87.597 118.793 C 80.892 115.803 74.644 111.881 69.037 107.143 C 62.584 101.961 56.758 96.045 51.677 89.513 C 47.818 84.645 44.843 79.139 42.887 73.243 C 41.506 68.947 41.026 64.413 41.477 59.923 C 41.785 57.458 42.65 55.095 44.007 53.013 C 46.185 49.545 48.965 46.494 52.217 44.003 C 53.648 42.881 55.516 42.478 57.283 42.909 C 59.05 43.34 60.522 44.558 61.277 46.213 Q 64.772 53.863 68.127 61.573 C 69.046 63.57 68.743 65.916 67.347 67.613 C 66.317 68.983 65.237 70.333 64.177 71.683 C 62.332 73.735 62.181 76.801 63.817 79.023 C 65.598 81.657 67.645 84.099 69.927 86.313 C 75.062 91.616 80.762 96.341 86.927 100.403 C 88.245 101.285 89.644 102.039 91.107 102.653 C 93.343 103.625 95.948 103.102 97.637 101.343 C 98.907 100.073 100.167 98.783 101.437 97.513 C 103.008 95.813 105.424 95.181 107.627 95.893 Q 115.517 98.128 123.417 100.383 C 125.342 100.845 126.912 102.235 127.602 104.091 C 128.293 105.947 128.013 108.026 126.857 109.633 L 126.857 109.633 L 126.857 109.633 Z " fill="rgb(255,120,0)"/></g></g></g></svg>