<?xml version="1.0" encoding="UTF-8" standalone="no"?><!-- Generator: Gravit.io --><svg xmlns="http://www.w3.org/2000/svg" xmlns:xlink="http://www.w3.org/1999/xlink" style="isolation:isolate" viewBox="0 0 50 50" width="50pt" height="50pt"><defs><clipPath id="_clipPath_lUsslytM94T7PAnuwze5S19NrM9jWlTt"><rect width="50" height="50"/></clipPath></defs><g clip-path="url(#_clipPath_lUsslytM94T7PAnuwze5S19NrM9jWlTt)"><clipPath id="_clipPath_Nhej9OkKal2WfK1czCrBsTOaBNTjuruY"><rect x="0" y="0" width="50" height="50" transform="matrix(1,0,0,1,0,0)" fill="rgb(255,255,255)"/></clipPath><g clip-path="url(#_clipPath_Nhej9OkKal2WfK1czCrBsTOaBNTjuruY)"><g><g><circle vector-effect="non-scaling-stroke" cx="25" cy="43.67857142857143" r="6.25" fill="rgb(255,120,0)"/><g><path d=" M 33.786 32.75 C 33.295 32.742 32.815 32.607 32.393 32.357 C 27.848 29.608 22.152 29.608 17.607 32.357 C 16.35 33.06 14.763 32.642 14.013 31.413 C 13.264 30.183 13.621 28.581 14.821 27.786 C 21.1 24.074 28.9 24.074 35.179 27.786 C 36.202 28.411 36.685 29.64 36.361 30.795 C 36.037 31.95 34.985 32.748 33.786 32.75 Z " fill="rgb(255,120,0)"/><path d=" M 40.536 22.214 C 40.092 22.197 39.66 22.061 39.286 21.821 C 30.528 16.42 19.472 16.42 10.714 21.821 C 9.472 22.469 7.942 22.05 7.202 20.861 C 6.462 19.672 6.763 18.114 7.893 17.286 C 18.31 10.93 31.405 10.93 41.821 17.286 C 42.815 17.928 43.27 19.145 42.941 20.282 C 42.612 21.418 41.576 22.203 40.393 22.214 L 40.536 22.214 L 40.536 22.214 Z " fill="rgb(255,120,0)"/><path d=" M 47.321 11.714 C 46.819 11.711 46.326 11.576 45.893 11.321 C 33.083 3.427 16.917 3.427 4.107 11.321 C 2.877 12.025 1.312 11.65 0.536 10.464 C -0.194 9.246 0.168 7.669 1.357 6.893 C 15.922 -2.069 34.292 -2.069 48.857 6.893 C 50.046 7.669 50.409 9.246 49.679 10.464 C 49.182 11.282 48.277 11.762 47.321 11.714 Z " fill="rgb(255,120,0)"/></g></g></g></g></g></svg>