<?xml version="1.0" encoding="UTF-8" standalone="no"?><!-- Generator: Gravit.io --><svg xmlns="http://www.w3.org/2000/svg" xmlns:xlink="http://www.w3.org/1999/xlink" style="isolation:isolate" viewBox="0 0 19 20" width="19pt" height="20pt"><defs><clipPath id="_clipPath_NSuWg7dJW3uVPqKroGUgEzS6W6m9eYbP"><rect width="19" height="20"/></clipPath></defs><g clip-path="url(#_clipPath_NSuWg7dJW3uVPqKroGUgEzS6W6m9eYbP)"><path d=" M 0 9.347 L 0 15.148 C 0 16.333 0.46 17.469 1.278 18.306 C 2.096 19.144 3.206 19.615 4.363 19.615 C 5.521 19.615 6.631 19.144 7.449 18.306 C 8.267 17.469 8.727 16.333 8.727 15.148 L 8.73 9.344 L 14.398 9.344 C 15.555 9.344 16.665 8.873 17.483 8.035 C 18.302 7.198 18.761 6.062 18.761 4.877 C 18.761 3.693 18.302 2.557 17.483 1.719 C 16.665 0.881 15.555 0.411 14.398 0.411 L 8.73 0.411 C 6.416 0.413 4.197 1.356 2.56 3.031 C 0.923 4.706 0.003 6.978 0 9.347 L 0 9.347 L 0 9.347 Z " fill="rgb(255,160,57)"/></g></svg>