<?xml version="1.0" encoding="UTF-8" standalone="no"?><!-- Generator: Gravit.io --><svg xmlns="http://www.w3.org/2000/svg" xmlns:xlink="http://www.w3.org/1999/xlink" style="isolation:isolate" viewBox="0 0 100 27" width="100pt" height="27pt"><defs><clipPath id="_clipPath_dcaXryCQp6zPSp6ZDHj5qhznDSgqqz7b"><rect width="100" height="27"/></clipPath></defs><g clip-path="url(#_clipPath_dcaXryCQp6zPSp6ZDHj5qhznDSgqqz7b)"><clipPath id="_clipPath_qrfzeg3aS9QtnkkX6ee10twP67bY4xmm"><rect x="0.611" y="0" width="98.84" height="26.13" transform="matrix(1,0,0,1,0,0)" fill="rgb(255,255,255)"/></clipPath><g clip-path="url(#_clipPath_qrfzeg3aS9QtnkkX6ee10twP67bY4xmm)"><g><path d=" M 99.412 23.397 C 99.385 23.264 99.347 23.134 99.298 23.009 C 99.248 22.884 99.187 22.765 99.115 22.652 C 99.042 22.538 98.958 22.432 98.865 22.336 C 98.772 22.24 98.671 22.154 98.562 22.079 C 98.453 22.003 98.337 21.939 98.216 21.889 C 98.095 21.836 97.97 21.797 97.842 21.771 C 97.584 21.716 97.318 21.716 97.061 21.771 C 96.933 21.797 96.807 21.836 96.687 21.889 C 96.565 21.939 96.449 22.003 96.341 22.079 C 96.232 22.154 96.13 22.24 96.038 22.336 C 95.944 22.432 95.861 22.538 95.788 22.652 C 95.716 22.765 95.655 22.884 95.605 23.009 C 95.555 23.134 95.517 23.264 95.491 23.397 C 95.438 23.664 95.438 23.941 95.491 24.208 C 95.517 24.341 95.555 24.471 95.605 24.596 C 95.655 24.721 95.716 24.84 95.788 24.953 C 95.861 25.067 95.944 25.173 96.038 25.269 C 96.13 25.365 96.232 25.451 96.341 25.526 C 96.45 25.602 96.566 25.666 96.687 25.718 C 96.808 25.769 96.933 25.808 97.061 25.835 C 97.319 25.889 97.584 25.889 97.842 25.835 C 97.97 25.808 98.095 25.769 98.216 25.718 C 98.337 25.666 98.453 25.602 98.562 25.526 C 98.671 25.451 98.772 25.365 98.865 25.269 C 98.958 25.173 99.042 25.067 99.115 24.953 C 99.187 24.84 99.248 24.721 99.298 24.596 C 99.347 24.471 99.385 24.341 99.412 24.208 C 99.465 23.941 99.465 23.664 99.412 23.397 L 99.412 23.397 L 99.412 23.397 Z " fill="rgb(250,250,250)"/><path d=" M 44.91 8.69 C 43.655 7.877 42.201 7.452 40.721 7.467 C 39.725 7.458 38.735 7.638 37.802 8 C 36.914 8.35 36.098 8.872 35.398 9.537 L 35.398 2.356 C 35.409 2.075 35.364 1.795 35.265 1.533 C 35.166 1.271 35.016 1.033 34.823 0.835 C 34.417 0.461 33.892 0.255 33.349 0.255 C 32.806 0.255 32.281 0.461 31.874 0.835 C 31.678 1.031 31.524 1.268 31.422 1.53 C 31.321 1.792 31.274 2.074 31.285 2.356 L 31.285 16.656 C 31.267 18.27 31.662 19.861 32.429 21.265 C 33.197 22.67 34.31 23.839 35.655 24.652 C 37.008 25.471 38.55 25.894 40.116 25.875 C 41.702 25.894 43.263 25.471 44.638 24.652 C 45.972 23.865 47.075 22.716 47.829 21.328 C 48.601 19.902 48.998 18.291 48.978 16.656 C 48.996 15.038 48.622 13.443 47.889 12.015 C 47.198 10.653 46.17 9.505 44.91 8.69 Z  M 44.35 19.415 C 43.948 20.208 43.347 20.874 42.611 21.344 C 41.855 21.806 40.994 22.049 40.116 22.049 C 39.239 22.049 38.377 21.806 37.621 21.344 C 36.887 20.876 36.291 20.209 35.897 19.415 C 35.475 18.562 35.262 17.614 35.277 16.656 C 35.262 15.697 35.475 14.749 35.897 13.896 C 36.289 13.105 36.886 12.442 37.621 11.983 C 38.375 11.518 39.239 11.279 40.116 11.293 C 40.994 11.259 41.862 11.493 42.611 11.967 C 43.347 12.438 43.948 13.104 44.35 13.896 C 44.782 14.746 45 15.695 44.986 16.656 C 45.001 17.616 44.782 18.565 44.35 19.415 L 44.35 19.415 L 44.35 19.415 Z " fill="rgb(250,250,250)"/><path d=" M 65.316 8.643 C 63.934 7.848 62.375 7.443 60.795 7.467 C 59.2 7.442 57.626 7.847 56.228 8.643 C 54.898 9.405 53.802 10.541 53.067 11.92 C 52.297 13.38 51.906 15.023 51.933 16.687 C 51.907 18.338 52.303 19.966 53.082 21.406 C 53.829 22.777 54.921 23.91 56.243 24.684 C 57.632 25.491 59.203 25.902 60.795 25.875 C 62.385 25.902 63.954 25.497 65.347 24.699 C 66.67 23.933 67.76 22.798 68.492 21.422 C 69.26 19.973 69.651 18.341 69.626 16.687 C 69.653 15.021 69.257 13.377 68.477 11.92 C 67.736 10.546 66.642 9.412 65.316 8.643 L 65.316 8.643 L 65.316 8.643 Z  M 65.029 19.509 C 64.646 20.302 64.053 20.965 63.32 21.422 C 62.55 21.874 61.68 22.112 60.795 22.112 C 59.91 22.112 59.04 21.874 58.269 21.422 C 57.534 20.964 56.937 20.301 56.545 19.509 C 56.119 18.635 55.906 17.666 55.925 16.687 C 55.907 15.703 56.12 14.729 56.545 13.849 C 56.934 13.051 57.531 12.382 58.269 11.92 C 59.04 11.468 59.91 11.231 60.795 11.231 C 61.68 11.231 62.55 11.468 63.32 11.92 C 64.056 12.38 64.649 13.05 65.029 13.849 C 65.445 14.732 65.652 15.704 65.634 16.687 C 65.653 17.664 65.446 18.632 65.029 19.509 L 65.029 19.509 L 65.029 19.509 Z " fill="rgb(250,250,250)"/><path d=" M 78.388 21.736 L 77.965 21.736 C 77.757 21.757 77.547 21.715 77.362 21.615 C 77.176 21.515 77.023 21.361 76.921 21.171 C 76.705 20.669 76.607 20.121 76.634 19.572 L 76.634 2.45 C 76.643 2.173 76.595 1.896 76.493 1.64 C 76.392 1.383 76.239 1.151 76.044 0.96 C 75.853 0.77 75.628 0.621 75.382 0.522 C 75.135 0.422 74.872 0.374 74.608 0.38 C 74.338 0.368 74.069 0.414 73.817 0.513 C 73.564 0.613 73.334 0.765 73.141 0.96 C 72.955 1.156 72.809 1.389 72.713 1.645 C 72.616 1.901 72.572 2.175 72.581 2.45 L 72.581 19.572 C 72.581 21.663 73.01 23.236 73.867 24.292 C 74.313 24.824 74.871 25.243 75.497 25.517 C 76.123 25.792 76.802 25.914 77.481 25.875 L 77.693 25.875 C 78.353 25.903 79.003 25.698 79.538 25.295 C 79.766 25.126 79.951 24.902 80.077 24.643 C 80.204 24.383 80.268 24.096 80.263 23.805 C 80.278 23.262 80.088 22.733 79.734 22.332 C 79.565 22.138 79.357 21.984 79.124 21.881 C 78.892 21.778 78.641 21.729 78.388 21.736 L 78.388 21.736 L 78.388 21.736 Z " fill="rgb(250,250,250)"/><path d=" M 90.681 21.736 L 89.653 21.736 C 89.41 21.739 89.17 21.686 88.95 21.58 C 88.73 21.474 88.536 21.318 88.382 21.124 C 88.003 20.597 87.82 19.946 87.868 19.29 L 87.868 12.046 L 89.925 12.046 C 90.436 12.066 90.934 11.881 91.316 11.528 C 91.492 11.365 91.632 11.165 91.726 10.94 C 91.82 10.715 91.866 10.472 91.861 10.227 C 91.873 9.97 91.831 9.712 91.737 9.474 C 91.643 9.235 91.499 9.021 91.316 8.847 C 90.93 8.504 90.433 8.325 89.925 8.345 L 87.868 8.345 L 87.868 4.331 C 87.877 4.054 87.829 3.778 87.727 3.521 C 87.626 3.264 87.473 3.033 87.278 2.842 C 86.884 2.469 86.368 2.262 85.834 2.262 C 85.3 2.262 84.785 2.469 84.39 2.842 C 84.2 3.035 84.05 3.267 83.951 3.524 C 83.852 3.78 83.806 4.055 83.815 4.331 L 83.815 8.345 L 82.938 8.345 C 82.425 8.319 81.921 8.499 81.532 8.847 C 81.353 9.024 81.213 9.239 81.121 9.477 C 81.03 9.715 80.989 9.971 81.002 10.227 C 80.996 10.47 81.04 10.712 81.132 10.937 C 81.223 11.161 81.359 11.363 81.532 11.528 C 81.917 11.886 82.422 12.072 82.938 12.046 L 83.815 12.046 L 83.815 19.603 C 83.773 20.817 84.034 22.021 84.571 23.1 C 85.042 23.997 85.765 24.724 86.643 25.185 C 87.579 25.659 88.611 25.895 89.653 25.875 L 90.197 25.875 C 90.802 25.904 91.395 25.697 91.861 25.295 C 92.067 25.111 92.23 24.882 92.34 24.625 C 92.45 24.367 92.503 24.087 92.496 23.805 C 92.504 23.264 92.309 22.741 91.951 22.347 C 91.794 22.157 91.6 22.003 91.38 21.898 C 91.161 21.792 90.923 21.737 90.681 21.736 L 90.681 21.736 L 90.681 21.736 Z " fill="rgb(250,250,250)"/><path d=" M 23.814 17.217 C 23.284 17.217 22.775 17.435 22.4 17.824 C 22.025 18.213 21.815 18.74 21.815 19.29 L 21.813 21.984 L 19.216 21.984 C 18.686 21.984 18.177 22.203 17.802 22.591 C 17.427 22.98 17.217 23.507 17.217 24.057 C 17.217 24.607 17.427 25.134 17.802 25.523 C 18.177 25.912 18.686 26.13 19.216 26.13 L 21.813 26.13 C 22.874 26.129 23.89 25.691 24.64 24.914 C 25.39 24.136 25.812 23.082 25.813 21.982 L 25.813 19.29 C 25.813 18.74 25.603 18.213 25.228 17.824 C 24.853 17.435 24.344 17.217 23.814 17.217 L 23.814 17.217 L 23.814 17.217 Z " fill="rgb(250,250,250)"/><path d=" M 21.813 0 L 19.216 0 C 18.686 0 18.177 0.218 17.802 0.607 C 17.427 0.996 17.217 1.523 17.217 2.073 C 17.217 2.623 17.427 3.15 17.802 3.539 C 18.177 3.928 18.686 4.146 19.216 4.146 L 21.815 4.148 L 21.815 6.84 C 21.815 7.39 22.025 7.917 22.4 8.306 C 22.775 8.695 23.284 8.913 23.814 8.913 C 24.344 8.913 24.853 8.695 25.228 8.306 C 25.603 7.917 25.813 7.39 25.813 6.84 L 25.813 4.148 C 25.812 3.048 25.39 1.994 24.64 1.216 C 23.89 0.439 22.874 0.001 21.813 0 L 21.813 0 L 21.813 0 Z " fill="rgb(250,250,250)"/><path d=" M 2.611 8.913 C 3.141 8.913 3.649 8.695 4.024 8.306 C 4.399 7.917 4.61 7.39 4.61 6.84 L 4.612 4.146 L 7.208 4.146 C 7.739 4.146 8.247 3.928 8.622 3.539 C 8.997 3.15 9.208 2.623 9.208 2.073 C 9.208 1.523 8.997 0.996 8.622 0.607 C 8.247 0.218 7.739 0 7.208 0 L 4.612 0 C 3.551 0.001 2.534 0.439 1.784 1.216 C 1.034 1.994 0.613 3.048 0.611 4.148 L 0.611 6.84 C 0.611 7.39 0.822 7.917 1.197 8.306 C 1.572 8.695 2.08 8.913 2.611 8.913 Z " fill="rgb(250,250,250)"/><path d=" M 7.208 21.984 L 4.61 21.982 L 4.61 19.29 C 4.61 18.74 4.399 18.213 4.024 17.824 C 3.649 17.435 3.141 17.217 2.611 17.217 C 2.08 17.217 1.572 17.435 1.197 17.824 C 0.822 18.213 0.611 18.74 0.611 19.29 L 0.611 21.982 C 0.613 23.082 1.034 24.136 1.784 24.914 C 2.534 25.691 3.551 26.129 4.612 26.13 L 7.208 26.13 C 7.739 26.13 8.247 25.912 8.622 25.523 C 8.997 25.134 9.208 24.607 9.208 24.057 C 9.208 23.507 8.997 22.98 8.622 22.591 C 8.247 22.203 7.739 21.984 7.208 21.984 L 7.208 21.984 L 7.208 21.984 Z " fill="rgb(250,250,250)"/><path d=" M 20.22 12.206 C 20.069 11.827 19.813 11.503 19.484 11.275 C 19.155 11.048 18.769 10.926 18.373 10.926 L 12.877 10.926 L 15.284 8.43 C 15.469 8.238 15.617 8.009 15.717 7.758 C 15.817 7.506 15.869 7.237 15.869 6.964 C 15.869 6.692 15.817 6.423 15.717 6.171 C 15.616 5.92 15.469 5.691 15.284 5.499 C 15.098 5.306 14.877 5.154 14.635 5.049 C 14.392 4.945 14.132 4.892 13.87 4.892 C 13.607 4.892 13.347 4.945 13.105 5.049 C 12.862 5.154 12.642 5.306 12.456 5.499 L 6.636 11.533 C 6.357 11.823 6.166 12.192 6.089 12.595 C 6.012 12.997 6.052 13.414 6.203 13.792 C 6.354 14.171 6.611 14.495 6.939 14.723 C 7.268 14.95 7.655 15.072 8.05 15.072 L 13.546 15.072 L 11.14 17.567 C 10.765 17.956 10.554 18.483 10.554 19.033 C 10.554 19.583 10.765 20.11 11.14 20.499 C 11.515 20.888 12.023 21.106 12.553 21.106 C 13.084 21.106 13.592 20.888 13.967 20.499 L 19.787 14.465 C 20.066 14.175 20.257 13.805 20.334 13.403 C 20.411 13.001 20.372 12.584 20.22 12.206 L 20.22 12.206 L 20.22 12.206 Z " fill="rgb(239,119,28)"/></g></g></g></svg>