<?xml version="1.0" encoding="UTF-8" standalone="no"?><!-- Generator: Gravit.io --><svg xmlns="http://www.w3.org/2000/svg" xmlns:xlink="http://www.w3.org/1999/xlink" style="isolation:isolate" viewBox="0 0 99 20" width="99pt" height="20pt"><defs><clipPath id="_clipPath_Mf696MRf3RGVtFy5WzjCNAmlxLWyeiyn"><rect width="99" height="20"/></clipPath></defs><g clip-path="url(#_clipPath_Mf696MRf3RGVtFy5WzjCNAmlxLWyeiyn)"><clipPath id="_clipPath_gQR8LQMX4RQ005HGLlNtURCsTJY3BSAh"><rect x="0.01" y="0.146" width="98.879" height="19" transform="matrix(1,0,0,1,0,0)" fill="rgb(255,255,255)"/></clipPath><g clip-path="url(#_clipPath_gQR8LQMX4RQ005HGLlNtURCsTJY3BSAh)"><g><path d=" M 42.339 7.832 C 41.81 6.922 41.052 6.167 40.14 5.642 C 39.228 5.118 38.194 4.841 37.142 4.841 C 36.09 4.841 35.056 5.118 34.144 5.642 C 33.232 6.167 32.474 6.922 31.945 7.832 C 31.411 8.771 31.137 9.835 31.151 10.916 C 31.136 11.982 31.388 13.035 31.883 13.979 C 32.347 14.861 33.035 15.605 33.877 16.137 C 34.742 16.661 35.734 16.938 36.745 16.938 C 37.756 16.938 38.748 16.661 39.612 16.137 C 39.887 15.966 40.145 15.77 40.385 15.554 C 40.389 15.731 40.427 15.906 40.497 16.068 C 40.568 16.231 40.67 16.378 40.798 16.501 C 40.926 16.624 41.077 16.72 41.242 16.785 C 41.407 16.85 41.583 16.881 41.76 16.877 C 41.943 16.882 42.124 16.849 42.294 16.781 C 42.463 16.713 42.617 16.611 42.746 16.482 C 42.875 16.352 42.976 16.198 43.043 16.028 C 43.11 15.858 43.142 15.677 43.137 15.494 L 43.137 10.701 C 43.116 9.693 42.841 8.707 42.339 7.832 Z  M 40.03 12.723 C 39.756 13.239 39.349 13.671 38.851 13.977 C 38.336 14.275 37.752 14.432 37.156 14.432 C 36.561 14.432 35.976 14.275 35.461 13.977 C 34.958 13.672 34.544 13.239 34.263 12.722 C 33.963 12.168 33.81 11.546 33.819 10.916 C 33.81 10.28 33.963 9.652 34.263 9.092 C 34.544 8.575 34.958 8.143 35.461 7.838 C 35.976 7.539 36.561 7.382 37.156 7.382 C 37.752 7.382 38.336 7.539 38.851 7.838 C 39.349 8.144 39.755 8.577 40.03 9.092 C 40.322 9.655 40.47 10.282 40.459 10.916 C 40.469 11.545 40.322 12.166 40.03 12.723 Z " fill="rgb(250,250,250)"/><path d=" M 65.336 7.832 C 64.808 6.922 64.049 6.167 63.138 5.642 C 62.226 5.117 61.192 4.841 60.14 4.841 C 59.088 4.841 58.054 5.117 57.142 5.642 C 56.23 6.167 55.472 6.922 54.944 7.832 C 54.409 8.771 54.136 9.835 54.151 10.916 C 54.135 11.981 54.385 13.035 54.879 13.979 C 55.343 14.862 56.031 15.606 56.875 16.137 C 57.739 16.661 58.731 16.938 59.742 16.938 C 60.753 16.938 61.745 16.661 62.61 16.137 C 62.884 15.966 63.142 15.77 63.381 15.553 C 63.422 15.895 63.588 16.208 63.846 16.434 C 64.105 16.66 64.439 16.781 64.782 16.774 C 65.126 16.767 65.454 16.633 65.704 16.398 C 65.954 16.162 66.107 15.842 66.134 15.5 L 66.134 10.701 C 66.113 9.693 65.838 8.706 65.336 7.832 Z  M 63.027 12.723 C 62.754 13.239 62.347 13.672 61.849 13.977 C 61.334 14.275 60.749 14.432 60.154 14.432 C 59.559 14.432 58.975 14.275 58.46 13.977 C 57.956 13.672 57.542 13.239 57.261 12.722 C 56.97 12.161 56.819 11.539 56.819 10.907 C 56.819 10.276 56.97 9.653 57.261 9.092 C 57.542 8.575 57.955 8.142 58.459 7.838 C 58.973 7.539 59.558 7.382 60.153 7.382 C 60.748 7.382 61.333 7.539 61.847 7.838 C 62.345 8.143 62.751 8.576 63.026 9.091 C 63.321 9.654 63.47 10.283 63.459 10.918 C 63.469 11.547 63.32 12.167 63.027 12.723 Z " fill="rgb(250,250,250)"/><path d=" M 93.341 7.832 C 92.812 6.922 92.054 6.167 91.142 5.642 C 90.23 5.118 89.196 4.841 88.144 4.841 C 87.092 4.841 86.058 5.118 85.146 5.642 C 84.234 6.167 83.476 6.922 82.947 7.832 C 82.413 8.771 82.139 9.835 82.153 10.916 C 82.137 11.981 82.387 13.035 82.881 13.979 C 83.345 14.861 84.033 15.605 84.875 16.137 C 85.74 16.661 86.732 16.938 87.743 16.938 C 88.754 16.938 89.746 16.661 90.61 16.137 C 90.884 15.966 91.143 15.77 91.383 15.554 C 91.386 15.731 91.424 15.906 91.495 16.068 C 91.566 16.231 91.668 16.378 91.796 16.501 C 91.924 16.624 92.075 16.72 92.24 16.785 C 92.405 16.85 92.581 16.881 92.758 16.877 C 92.941 16.881 93.122 16.848 93.291 16.78 C 93.461 16.712 93.614 16.61 93.743 16.481 C 93.872 16.351 93.973 16.197 94.04 16.028 C 94.107 15.858 94.14 15.676 94.135 15.494 L 94.135 10.701 C 94.115 9.693 93.842 8.707 93.341 7.832 Z  M 91.032 12.723 C 90.758 13.239 90.351 13.671 89.854 13.977 C 89.338 14.275 88.754 14.432 88.158 14.432 C 87.563 14.432 86.978 14.275 86.463 13.977 C 85.96 13.672 85.546 13.239 85.265 12.722 C 84.966 12.168 84.814 11.547 84.824 10.917 C 84.814 10.281 84.965 9.653 85.265 9.092 C 85.546 8.575 85.96 8.143 86.463 7.838 C 86.978 7.539 87.563 7.382 88.158 7.382 C 88.754 7.382 89.338 7.539 89.854 7.838 C 90.35 8.144 90.757 8.576 91.032 9.091 C 91.326 9.655 91.475 10.283 91.465 10.918 C 91.473 11.547 91.325 12.167 91.032 12.723 Z " fill="rgb(250,250,250)"/><path d=" M 98.861 15.305 C 98.843 15.217 98.817 15.131 98.784 15.049 C 98.75 14.967 98.708 14.888 98.659 14.814 C 98.609 14.738 98.552 14.669 98.488 14.605 C 98.424 14.542 98.355 14.486 98.28 14.436 C 98.206 14.386 98.127 14.344 98.044 14.311 C 97.962 14.276 97.877 14.25 97.789 14.233 C 97.613 14.197 97.432 14.197 97.255 14.233 C 97.168 14.25 97.082 14.276 97 14.311 C 96.916 14.344 96.837 14.386 96.763 14.436 C 96.689 14.486 96.619 14.542 96.555 14.605 C 96.492 14.669 96.435 14.738 96.385 14.814 C 96.337 14.888 96.295 14.967 96.259 15.049 C 96.227 15.132 96.201 15.217 96.182 15.305 C 96.145 15.481 96.145 15.663 96.182 15.84 C 96.201 15.927 96.227 16.013 96.259 16.096 C 96.295 16.178 96.337 16.256 96.385 16.331 C 96.435 16.406 96.492 16.475 96.555 16.538 C 96.619 16.602 96.688 16.659 96.763 16.709 C 96.837 16.758 96.917 16.801 97 16.834 C 97.082 16.869 97.168 16.895 97.255 16.912 C 97.343 16.93 97.433 16.938 97.522 16.938 C 97.701 16.938 97.879 16.903 98.044 16.834 C 98.127 16.801 98.206 16.759 98.28 16.709 C 98.355 16.659 98.424 16.602 98.488 16.538 C 98.552 16.475 98.61 16.406 98.659 16.331 C 98.708 16.257 98.75 16.178 98.784 16.096 C 98.817 16.013 98.843 15.927 98.861 15.84 C 98.898 15.663 98.898 15.481 98.861 15.305 Z " fill="rgb(250,250,250)"/><path d=" M 5.394 18.75 C 5.269 18.625 5.169 18.476 5.101 18.312 C 5.033 18.148 4.998 17.972 4.998 17.794 C 4.998 17.617 5.033 17.441 5.101 17.277 C 5.169 17.113 5.269 16.964 5.394 16.839 L 14.847 7.386 C 15.101 7.132 15.444 6.99 15.803 6.99 C 16.161 6.99 16.505 7.132 16.759 7.386 C 17.012 7.639 17.155 7.983 17.155 8.341 C 17.155 8.7 17.012 9.044 16.759 9.297 L 7.306 18.75 C 7.052 19.004 6.708 19.146 6.35 19.146 C 5.991 19.146 5.648 19.004 5.394 18.75 Z " fill="rgb(250,250,250)"/><path d=" M 14.847 13.761 L 5.394 4.308 C 5.148 4.053 5.011 3.712 5.014 3.357 C 5.017 3.003 5.159 2.663 5.409 2.413 C 5.66 2.162 5.999 2.019 6.353 2.016 C 6.708 2.013 7.05 2.15 7.304 2.396 L 16.759 11.851 C 17.005 12.106 17.142 12.447 17.139 12.802 C 17.136 13.156 16.993 13.495 16.743 13.746 C 16.492 13.997 16.153 14.139 15.798 14.141 C 15.443 14.144 15.102 14.008 14.847 13.761 Z " fill="rgb(250,250,250)"/><path d=" M 0.405 13.761 C 0.152 13.507 0.01 13.163 0.01 12.805 C 0.01 12.447 0.152 12.103 0.405 11.849 L 9.858 2.396 C 9.984 2.271 10.133 2.171 10.297 2.103 C 10.461 2.035 10.637 2 10.814 2 C 10.992 2 11.167 2.035 11.331 2.103 C 11.495 2.171 11.644 2.271 11.77 2.396 C 11.895 2.522 11.995 2.671 12.063 2.835 C 12.131 2.999 12.166 3.174 12.166 3.352 C 12.166 3.529 12.131 3.705 12.063 3.869 C 11.995 4.033 11.895 4.182 11.77 4.308 L 2.317 13.761 C 2.191 13.886 2.042 13.986 1.878 14.054 C 1.714 14.122 1.539 14.157 1.361 14.157 C 1.184 14.157 1.008 14.122 0.844 14.054 C 0.68 13.986 0.531 13.886 0.405 13.761 Z " fill="rgb(250,250,250)"/><path d=" M 9.859 18.75 L 0.406 9.297 C 0.152 9.044 0.01 8.7 0.01 8.341 C 0.01 7.983 0.152 7.639 0.406 7.386 C 0.659 7.132 1.003 6.99 1.361 6.99 C 1.72 6.99 2.064 7.132 2.317 7.386 L 11.77 16.839 C 12.024 17.092 12.166 17.436 12.166 17.794 C 12.166 18.153 12.024 18.497 11.77 18.75 C 11.517 19.004 11.173 19.146 10.815 19.146 C 10.456 19.146 10.112 19.004 9.859 18.75 Z " fill="rgb(250,250,250)"/><path d=" M 5.394 18.75 C 5.269 18.625 5.169 18.476 5.101 18.312 C 5.033 18.148 4.998 17.972 4.998 17.794 C 4.998 17.617 5.033 17.441 5.101 17.277 C 5.169 17.113 5.269 16.964 5.394 16.838 L 8.65 13.582 C 8.905 13.336 9.247 13.199 9.601 13.202 C 9.956 13.206 10.295 13.348 10.546 13.599 C 10.796 13.849 10.938 14.189 10.941 14.543 C 10.944 14.898 10.807 15.239 10.56 15.494 L 7.306 18.75 C 7.052 19.003 6.708 19.146 6.35 19.146 C 5.991 19.146 5.648 19.003 5.394 18.75 Z " fill="rgb(250,250,250)"/><path d=" M 29.808 14.625 C 29.7 14.5 29.566 14.4 29.416 14.331 C 29.266 14.263 29.102 14.228 28.937 14.228 L 28.245 14.228 C 28.078 14.228 27.914 14.189 27.765 14.114 C 27.616 14.038 27.487 13.929 27.389 13.794 C 27.127 13.461 26.993 13.047 27.01 12.624 L 27.01 7.874 L 28.425 7.874 C 28.764 7.885 29.095 7.766 29.348 7.539 C 29.467 7.431 29.561 7.298 29.626 7.15 C 29.69 7.002 29.722 6.843 29.72 6.681 C 29.725 6.514 29.695 6.347 29.63 6.191 C 29.566 6.036 29.469 5.897 29.346 5.782 C 29.094 5.556 28.764 5.437 28.425 5.449 L 27.004 5.449 L 27.004 2.821 C 27.004 2.461 26.862 2.117 26.607 1.862 C 26.353 1.608 26.008 1.465 25.649 1.465 C 25.289 1.465 24.944 1.608 24.69 1.862 C 24.436 2.117 24.293 2.461 24.293 2.821 L 24.293 5.449 L 23.675 5.449 C 23.336 5.437 23.006 5.557 22.754 5.782 C 22.631 5.897 22.534 6.037 22.47 6.192 C 22.406 6.347 22.376 6.514 22.382 6.681 C 22.379 6.843 22.411 7.002 22.475 7.15 C 22.54 7.298 22.634 7.431 22.754 7.539 C 23.006 7.765 23.336 7.885 23.675 7.874 L 24.293 7.874 L 24.293 12.622 C 24.283 13.382 24.458 14.133 24.804 14.809 C 25.127 15.443 25.613 15.979 26.212 16.363 C 26.817 16.746 27.521 16.946 28.238 16.938 L 28.608 16.938 C 29.002 16.952 29.388 16.822 29.693 16.573 C 29.838 16.452 29.954 16.301 30.033 16.129 C 30.112 15.958 30.151 15.771 30.148 15.583 C 30.159 15.232 30.038 14.89 29.808 14.625 Z " fill="rgb(250,250,250)"/><path d=" M 53.01 5.37 C 52.546 5.063 51.885 4.915 50.989 4.915 C 50.142 4.908 49.308 5.121 48.568 5.532 C 48.308 5.677 48.062 5.845 47.832 6.034 C 47.793 5.792 47.681 5.568 47.511 5.391 C 47.276 5.157 46.939 5.038 46.508 5.038 C 46.327 5.023 46.144 5.048 45.972 5.11 C 45.801 5.173 45.645 5.272 45.516 5.401 C 45.387 5.53 45.288 5.686 45.225 5.858 C 45.162 6.029 45.138 6.212 45.153 6.394 L 45.153 15.583 C 45.153 16.017 45.276 16.356 45.519 16.59 C 45.79 16.832 46.146 16.957 46.508 16.938 C 46.941 16.938 47.28 16.815 47.515 16.57 C 47.758 16.3 47.883 15.945 47.864 15.583 L 47.864 9.581 C 47.854 9.335 47.895 9.091 47.983 8.861 C 48.071 8.632 48.205 8.423 48.376 8.247 C 48.787 7.856 49.305 7.595 49.864 7.496 C 50.6 7.356 51.356 7.37 52.086 7.536 C 52.29 7.587 52.503 7.595 52.711 7.56 C 52.917 7.52 53.108 7.424 53.264 7.283 C 53.44 7.121 53.559 6.906 53.603 6.671 C 53.701 6.326 53.668 5.806 53.01 5.37 Z " fill="rgb(250,250,250)"/><path d=" M 79.404 7.832 C 78.94 6.951 78.252 6.206 77.41 5.674 C 76.626 5.2 75.736 4.927 74.821 4.881 C 73.906 4.836 72.993 5.018 72.166 5.412 C 71.709 5.638 71.284 5.924 70.903 6.262 L 70.903 1.522 C 70.911 1.338 70.881 1.155 70.815 0.984 C 70.748 0.813 70.646 0.657 70.516 0.528 C 70.386 0.398 70.23 0.297 70.058 0.231 C 69.887 0.166 69.703 0.136 69.52 0.146 C 69.34 0.141 69.16 0.172 68.993 0.238 C 68.825 0.303 68.671 0.401 68.542 0.526 C 68.41 0.655 68.306 0.811 68.238 0.982 C 68.169 1.154 68.137 1.337 68.143 1.522 L 68.143 10.9 C 68.145 11.979 68.423 13.039 68.953 13.978 C 69.469 14.892 70.223 15.65 71.134 16.171 C 72.045 16.692 73.08 16.957 74.13 16.938 C 75.184 16.959 76.223 16.695 77.14 16.174 C 78.056 15.653 78.815 14.895 79.337 13.979 C 79.872 13.039 80.147 11.973 80.132 10.891 C 80.147 9.827 79.897 8.776 79.404 7.832 Z  M 77.02 12.712 C 76.742 13.232 76.332 13.668 75.83 13.977 C 75.315 14.275 74.731 14.432 74.136 14.432 C 73.541 14.432 72.956 14.275 72.441 13.977 C 71.938 13.671 71.528 13.235 71.254 12.714 C 70.96 12.152 70.811 11.525 70.821 10.891 C 70.809 10.259 70.958 9.634 71.253 9.074 C 71.53 8.561 71.941 8.131 72.441 7.83 C 72.956 7.531 73.54 7.374 74.136 7.374 C 74.731 7.374 75.315 7.531 75.83 7.83 C 76.328 8.135 76.738 8.564 77.021 9.074 C 77.322 9.632 77.474 10.257 77.462 10.891 C 77.471 11.526 77.319 12.152 77.02 12.712 Z " fill="rgb(250,250,250)"/></g></g></g></svg>