<?xml version="1.0" encoding="UTF-8" standalone="no"?><!-- Generator: Gravit.io --><svg xmlns="http://www.w3.org/2000/svg" xmlns:xlink="http://www.w3.org/1999/xlink" style="isolation:isolate" viewBox="0 0 22 22" width="22pt" height="22pt"><defs><clipPath id="_clipPath_4kHQ1Sfc3eeTwCPZJEyeoFQ8WOvjWyjF"><rect width="22" height="22"/></clipPath></defs><g clip-path="url(#_clipPath_4kHQ1Sfc3eeTwCPZJEyeoFQ8WOvjWyjF)"><path d=" M 9.035 14.531 C 8.824 14.551 8.61 14.528 8.408 14.463 C 8.205 14.398 8.018 14.293 7.857 14.154 C 7.698 14.007 7.571 13.829 7.484 13.63 C 7.397 13.432 7.352 13.217 7.352 13.001 C 7.352 12.784 7.397 12.57 7.484 12.371 C 7.571 12.173 7.698 11.994 7.857 11.847 L 11.847 7.877 C 12.147 7.573 12.556 7.401 12.983 7.398 C 13.41 7.395 13.821 7.562 14.125 7.861 C 14.429 8.161 14.602 8.569 14.605 8.996 C 14.608 9.423 14.441 9.833 14.141 10.137 L 10.151 14.154 C 9.842 14.419 9.442 14.554 9.035 14.531 L 9.035 14.531 L 9.035 14.531 Z " fill="rgb(255,160,57)"/><path d=" M 17.283 14.154 C 17.077 14.155 16.872 14.116 16.68 14.037 C 16.489 13.959 16.315 13.844 16.168 13.699 C 16.021 13.553 15.904 13.379 15.824 13.188 C 15.744 12.997 15.703 12.792 15.703 12.585 C 15.703 12.378 15.744 12.172 15.824 11.981 C 15.904 11.79 16.021 11.616 16.168 11.471 L 18.399 9.242 C 18.546 9.096 18.663 8.923 18.743 8.732 C 18.822 8.54 18.863 8.335 18.863 8.128 C 18.863 7.921 18.822 7.716 18.743 7.525 C 18.663 7.333 18.546 7.16 18.399 7.014 L 14.99 3.593 C 14.844 3.446 14.67 3.329 14.479 3.25 C 14.287 3.17 14.082 3.129 13.875 3.129 C 13.667 3.129 13.462 3.17 13.27 3.25 C 13.079 3.329 12.905 3.446 12.759 3.593 L 10.544 5.821 C 10.398 5.968 10.224 6.084 10.033 6.163 C 9.841 6.242 9.636 6.283 9.429 6.283 C 9.222 6.283 9.017 6.242 8.825 6.163 C 8.634 6.084 8.46 5.968 8.314 5.821 C 8.018 5.526 7.852 5.125 7.852 4.707 C 7.852 4.5 7.892 4.295 7.972 4.104 C 8.051 3.913 8.167 3.739 8.314 3.593 L 10.544 1.365 C 11.447 0.49 12.656 0 13.914 0 C 15.172 0 16.381 0.49 17.283 1.365 L 20.614 4.739 C 21.053 5.176 21.402 5.696 21.64 6.268 C 21.877 6.84 22 7.454 22 8.073 C 22 8.693 21.877 9.306 21.64 9.879 C 21.402 10.451 21.053 10.97 20.614 11.408 L 18.399 13.683 C 18.253 13.831 18.08 13.949 17.888 14.03 C 17.697 14.111 17.491 14.153 17.283 14.154 L 17.283 14.154 L 17.283 14.154 Z " fill="rgb(255,160,57)"/><path d=" M 8.125 22 C 6.876 21.999 5.678 21.502 4.795 20.619 L 1.386 17.198 C 0.947 16.761 0.598 16.241 0.36 15.669 C 0.122 15.097 0 14.483 0 13.864 C 0 13.244 0.122 12.63 0.36 12.058 C 0.598 11.486 0.947 10.966 1.386 10.529 L 3.601 8.316 C 3.895 8.021 4.294 7.854 4.711 7.853 C 5.128 7.851 5.528 8.015 5.824 8.309 C 6.12 8.602 6.287 9.001 6.288 9.417 C 6.29 9.834 6.125 10.234 5.832 10.529 L 3.601 12.757 C 3.454 12.903 3.337 13.077 3.257 13.268 C 3.177 13.459 3.136 13.664 3.136 13.871 C 3.136 14.079 3.177 14.284 3.257 14.475 C 3.337 14.666 3.454 14.84 3.601 14.986 L 7.01 18.391 C 7.156 18.538 7.33 18.655 7.521 18.734 C 7.713 18.814 7.918 18.855 8.125 18.855 C 8.333 18.855 8.538 18.814 8.729 18.734 C 8.921 18.655 9.095 18.538 9.241 18.391 L 11.456 16.178 C 11.749 15.883 12.149 15.716 12.565 15.714 C 12.982 15.713 13.383 15.877 13.678 16.17 C 13.974 16.464 14.141 16.863 14.143 17.279 C 14.144 17.695 13.98 18.095 13.686 18.391 L 11.456 20.619 C 10.573 21.502 9.375 21.999 8.125 22 L 8.125 22 L 8.125 22 Z " fill="rgb(255,160,57)"/></g></svg>