<?xml version="1.0" encoding="UTF-8" standalone="no"?><!-- Generator: Gravit.io --><svg xmlns="http://www.w3.org/2000/svg" xmlns:xlink="http://www.w3.org/1999/xlink" style="isolation:isolate" viewBox="0 0 20 20" width="20pt" height="20pt"><defs><clipPath id="_clipPath_ejkFDeieA9eUYk1kCAE7KfiEUDVlMxZl"><rect width="20" height="20"/></clipPath></defs><g clip-path="url(#_clipPath_ejkFDeieA9eUYk1kCAE7KfiEUDVlMxZl)"><g><path d="M 0 6.428 L 0 2.143 C 0 0.96 0.96 0 2.143 0 L 6.428 0 C 7.61 0 8.57 0.96 8.57 2.143 L 8.57 6.428 C 8.57 7.61 7.61 8.57 6.428 8.57 L 2.143 8.57 C 0.96 8.57 0 7.61 0 6.428 Z" style="stroke:none;fill:#FFA039;stroke-miterlimit:10;"/><path d="M 11.43 6.428 L 11.43 2.143 C 11.43 0.96 12.39 0 13.573 0 L 17.858 0 C 19.04 0 20 0.96 20 2.143 L 20 6.428 C 20 7.61 19.04 8.57 17.858 8.57 L 13.573 8.57 C 12.39 8.57 11.43 7.61 11.43 6.428 Z" style="stroke:none;fill:#FFA039;stroke-miterlimit:10;"/><path d="M 0 17.858 L 0 13.573 C 0 12.39 0.96 11.43 2.142 11.43 L 6.428 11.43 C 7.61 11.43 8.57 12.39 8.57 13.573 L 8.57 17.858 C 8.57 19.04 7.61 20 6.428 20 L 2.142 20 C 0.96 20 0 19.04 0 17.858 Z" style="stroke:none;fill:#FFA039;stroke-miterlimit:10;"/><path d="M 11.43 17.858 L 11.43 13.573 C 11.43 12.39 12.39 11.43 13.572 11.43 L 17.858 11.43 C 19.04 11.43 20 12.39 20 13.573 L 20 17.858 C 20 19.04 19.04 20 17.858 20 L 13.573 20 C 12.39 20 11.43 19.04 11.43 17.858 Z" style="stroke:none;fill:#FFA039;stroke-miterlimit:10;"/></g></g></svg>